<?xml version="1.0" encoding="UTF-8" standalone="no"?>
<!DOCTYPE svg PUBLIC "-//W3C//DTD SVG 1.1//EN"
 "http://www.w3.org/Graphics/SVG/1.1/DTD/svg11.dtd">
<!-- Generated by graphviz version 2.40.1 (20161225.0304)
 -->
<!-- Title: dependencies Pages: 1 -->
<svg width="898pt" height="211pt"
 viewBox="0.00 0.00 898.00 211.00" xmlns="http://www.w3.org/2000/svg" xmlns:xlink="http://www.w3.org/1999/xlink">
<g id="graph0" class="graph" transform="scale(1 1) rotate(0) translate(4 207)">
<title>dependencies</title>
<polygon fill="#ffffff" stroke="transparent" points="-4,4 -4,-207 894,-207 894,4 -4,4"/>
<text text-anchor="start" x="424.0091" y="-42.4" font-family="sans-serif" font-weight="bold" font-size="14.00" fill="#000000">Legend</text>
<polygon fill="#ffffb3" stroke="transparent" points="211,-10 211,-30 231,-30 231,-10 211,-10"/>
<text text-anchor="start" x="234.629" y="-15.4" font-family="sans-serif" font-size="14.00" fill="#000000"> &#160;Declarations</text>
<polygon fill="#8dd3c7" stroke="transparent" points="324,-10 324,-30 344,-30 344,-10 324,-10"/>
<text text-anchor="start" x="347.7251" y="-15.4" font-family="sans-serif" font-size="14.00" fill="#000000"> &#160;Module</text>
<polygon fill="#80b1d3" stroke="transparent" points="410,-10 410,-30 430,-30 430,-10 410,-10"/>
<text text-anchor="start" x="433.7812" y="-15.4" font-family="sans-serif" font-size="14.00" fill="#000000"> &#160;Bootstrap</text>
<polygon fill="#fdb462" stroke="transparent" points="507,-10 507,-30 527,-30 527,-10 507,-10"/>
<text text-anchor="start" x="530.6732" y="-15.4" font-family="sans-serif" font-size="14.00" fill="#000000"> &#160;Providers</text>
<polygon fill="#fb8072" stroke="transparent" points="603,-10 603,-30 623,-30 623,-10 603,-10"/>
<text text-anchor="start" x="626.7258" y="-15.4" font-family="sans-serif" font-size="14.00" fill="#000000"> &#160;Exports</text>
<g id="clust1" class="cluster">
<title>cluster_BookListModule</title>
<polygon fill="none" stroke="#000000" stroke-dasharray="1,5" points="8,-70 8,-195 882,-195 882,-70 8,-70"/>
</g>
<g id="clust2" class="cluster">
<title>cluster_BookListModule_declarations</title>
<polygon fill="none" stroke="#000000" points="268,-78 268,-130 874,-130 874,-78 268,-78"/>
</g>
<g id="clust7" class="cluster">
<title>cluster_BookListModule_imports</title>
<polygon fill="none" stroke="#000000" points="16,-78 16,-130 260,-130 260,-78 16,-78"/>
</g>
<!-- BookListComponent -->
<g id="node1" class="node">
<title>BookListComponent</title>
<polygon fill="#ffffb3" stroke="#000000" points="865.9482,-122 732.0518,-122 732.0518,-86 865.9482,-86 865.9482,-122"/>
<text text-anchor="middle" x="799" y="-99.8" font-family="Times,serif" font-size="14.00" fill="#000000">BookListComponent</text>
</g>
<!-- BookListModule -->
<g id="node5" class="node">
<title>BookListModule</title>
<polygon fill="#8dd3c7" stroke="#000000" points="473.6653,-187 470.6653,-191 449.6653,-191 446.6653,-187 362.3347,-187 362.3347,-151 473.6653,-151 473.6653,-187"/>
<text text-anchor="middle" x="418" y="-164.8" font-family="Times,serif" font-size="14.00" fill="#000000">BookListModule</text>
</g>
<!-- BookListComponent&#45;&gt;BookListModule -->
<g id="edge1" class="edge">
<title>BookListComponent&#45;&gt;BookListModule</title>
<path fill="none" stroke="#000000" d="M799,-122.2843C799,-143.3211 799,-175 799,-175 799,-175 483.8087,-175 483.8087,-175"/>
<polygon fill="#000000" stroke="#000000" points="483.8087,-171.5001 473.8087,-175 483.8087,-178.5001 483.8087,-171.5001"/>
</g>
<!-- ListViewComponent -->
<g id="node2" class="node">
<title>ListViewComponent</title>
<polygon fill="#ffffb3" stroke="#000000" points="714.9299,-122 581.0701,-122 581.0701,-86 714.9299,-86 714.9299,-122"/>
<text text-anchor="middle" x="648" y="-99.8" font-family="Times,serif" font-size="14.00" fill="#000000">ListViewComponent</text>
</g>
<!-- ListViewComponent&#45;&gt;BookListModule -->
<g id="edge2" class="edge">
<title>ListViewComponent&#45;&gt;BookListModule</title>
<path fill="none" stroke="#000000" d="M648,-122.0225C648,-139.3734 648,-163 648,-163 648,-163 483.6766,-163 483.6766,-163"/>
<polygon fill="#000000" stroke="#000000" points="483.6766,-159.5001 473.6766,-163 483.6765,-166.5001 483.6766,-159.5001"/>
</g>
<!-- GridViewComponent -->
<g id="node3" class="node">
<title>GridViewComponent</title>
<polygon fill="#ffffb3" stroke="#000000" points="563.8089,-122 426.1911,-122 426.1911,-86 563.8089,-86 563.8089,-122"/>
<text text-anchor="middle" x="495" y="-99.8" font-family="Times,serif" font-size="14.00" fill="#000000">GridViewComponent</text>
</g>
<!-- GridViewComponent&#45;&gt;BookListModule -->
<g id="edge3" class="edge">
<title>GridViewComponent&#45;&gt;BookListModule</title>
<path fill="none" stroke="#000000" d="M450.0891,-122.1061C450.0891,-122.1061 450.0891,-140.991 450.0891,-140.991"/>
<polygon fill="#000000" stroke="#000000" points="446.5891,-140.9909 450.0891,-150.991 453.5891,-140.991 446.5891,-140.9909"/>
</g>
<!-- GridItemComponent -->
<g id="node4" class="node">
<title>GridItemComponent</title>
<polygon fill="#ffffb3" stroke="#000000" points="408.1471,-122 275.8529,-122 275.8529,-86 408.1471,-86 408.1471,-122"/>
<text text-anchor="middle" x="342" y="-99.8" font-family="Times,serif" font-size="14.00" fill="#000000">GridItemComponent</text>
</g>
<!-- GridItemComponent&#45;&gt;BookListModule -->
<g id="edge4" class="edge">
<title>GridItemComponent&#45;&gt;BookListModule</title>
<path fill="none" stroke="#000000" d="M385.2455,-122.1061C385.2455,-122.1061 385.2455,-140.991 385.2455,-140.991"/>
<polygon fill="#000000" stroke="#000000" points="381.7455,-140.9909 385.2455,-150.991 388.7455,-140.991 381.7455,-140.9909"/>
</g>
<!-- CommonModule -->
<g id="node6" class="node">
<title>CommonModule</title>
<polygon fill="#8dd3c7" stroke="#000000" points="251.6681,-122 248.6681,-126 227.6681,-126 224.6681,-122 140.3319,-122 140.3319,-86 251.6681,-86 251.6681,-122"/>
<text text-anchor="middle" x="196" y="-99.8" font-family="Times,serif" font-size="14.00" fill="#000000">CommonModule</text>
</g>
<!-- CommonModule&#45;&gt;BookListModule -->
<g id="edge5" class="edge">
<title>CommonModule&#45;&gt;BookListModule</title>
<path fill="none" stroke="#000000" d="M196,-122.0225C196,-139.3734 196,-163 196,-163 196,-163 352.2666,-163 352.2666,-163"/>
<polygon fill="#000000" stroke="#000000" points="352.2666,-166.5001 362.2666,-163 352.2665,-159.5001 352.2666,-166.5001"/>
</g>
<!-- RouterModule -->
<g id="node7" class="node">
<title>RouterModule</title>
<polygon fill="#8dd3c7" stroke="#000000" points="121.6528,-122 118.6528,-126 97.6528,-126 94.6528,-122 24.3472,-122 24.3472,-86 121.6528,-86 121.6528,-122"/>
<text text-anchor="middle" x="73" y="-99.8" font-family="Times,serif" font-size="14.00" fill="#000000">RouterModule</text>
</g>
<!-- RouterModule&#45;&gt;BookListModule -->
<g id="edge6" class="edge">
<title>RouterModule&#45;&gt;BookListModule</title>
<path fill="none" stroke="#000000" d="M73,-122.2843C73,-143.3211 73,-175 73,-175 73,-175 352.1864,-175 352.1864,-175"/>
<polygon fill="#000000" stroke="#000000" points="352.1864,-178.5001 362.1864,-175 352.1863,-171.5001 352.1864,-178.5001"/>
</g>
</g>
</svg>
