<?xml version="1.0" encoding="UTF-8" standalone="no"?>
<!DOCTYPE svg PUBLIC "-//W3C//DTD SVG 1.1//EN"
 "http://www.w3.org/Graphics/SVG/1.1/DTD/svg11.dtd">
<!-- Generated by graphviz version 2.40.1 (20161225.0304)
 -->
<!-- Title: dependencies Pages: 1 -->
<svg width="988pt" height="211pt"
 viewBox="0.00 0.00 988.00 211.00" xmlns="http://www.w3.org/2000/svg" xmlns:xlink="http://www.w3.org/1999/xlink">
<g id="graph0" class="graph" transform="scale(1 1) rotate(0) translate(4 207)">
<title>dependencies</title>
<polygon fill="#ffffff" stroke="transparent" points="-4,4 -4,-207 984,-207 984,4 -4,4"/>
<text text-anchor="start" x="469.0091" y="-42.4" font-family="sans-serif" font-weight="bold" font-size="14.00" fill="#000000">Legend</text>
<polygon fill="#ffffb3" stroke="transparent" points="256,-10 256,-30 276,-30 276,-10 256,-10"/>
<text text-anchor="start" x="279.629" y="-15.4" font-family="sans-serif" font-size="14.00" fill="#000000"> &#160;Declarations</text>
<polygon fill="#8dd3c7" stroke="transparent" points="369,-10 369,-30 389,-30 389,-10 369,-10"/>
<text text-anchor="start" x="392.7251" y="-15.4" font-family="sans-serif" font-size="14.00" fill="#000000"> &#160;Module</text>
<polygon fill="#80b1d3" stroke="transparent" points="455,-10 455,-30 475,-30 475,-10 455,-10"/>
<text text-anchor="start" x="478.7812" y="-15.4" font-family="sans-serif" font-size="14.00" fill="#000000"> &#160;Bootstrap</text>
<polygon fill="#fdb462" stroke="transparent" points="552,-10 552,-30 572,-30 572,-10 552,-10"/>
<text text-anchor="start" x="575.6732" y="-15.4" font-family="sans-serif" font-size="14.00" fill="#000000"> &#160;Providers</text>
<polygon fill="#fb8072" stroke="transparent" points="648,-10 648,-30 668,-30 668,-10 648,-10"/>
<text text-anchor="start" x="671.7258" y="-15.4" font-family="sans-serif" font-size="14.00" fill="#000000"> &#160;Exports</text>
<g id="clust1" class="cluster">
<title>cluster_BookDetailModule</title>
<polygon fill="none" stroke="#000000" stroke-dasharray="1,5" points="8,-70 8,-195 972,-195 972,-70 8,-70"/>
</g>
<g id="clust2" class="cluster">
<title>cluster_BookDetailModule_declarations</title>
<polygon fill="none" stroke="#000000" points="268,-78 268,-130 964,-130 964,-78 268,-78"/>
</g>
<g id="clust8" class="cluster">
<title>cluster_BookDetailModule_imports</title>
<polygon fill="none" stroke="#000000" points="16,-78 16,-130 260,-130 260,-78 16,-78"/>
</g>
<!-- BookDetailComponent -->
<g id="node1" class="node">
<title>BookDetailComponent</title>
<polygon fill="#ffffb3" stroke="#000000" points="955.8767,-122 810.1233,-122 810.1233,-86 955.8767,-86 955.8767,-122"/>
<text text-anchor="middle" x="883" y="-99.8" font-family="Times,serif" font-size="14.00" fill="#000000">BookDetailComponent</text>
</g>
<!-- BookDetailModule -->
<g id="node6" class="node">
<title>BookDetailModule</title>
<polygon fill="#8dd3c7" stroke="#000000" points="519.094,-187 516.094,-191 495.094,-191 492.094,-187 394.906,-187 394.906,-151 519.094,-151 519.094,-187"/>
<text text-anchor="middle" x="457" y="-164.8" font-family="Times,serif" font-size="14.00" fill="#000000">BookDetailModule</text>
</g>
<!-- BookDetailComponent&#45;&gt;BookDetailModule -->
<g id="edge1" class="edge">
<title>BookDetailComponent&#45;&gt;BookDetailModule</title>
<path fill="none" stroke="#000000" d="M883,-122.2921C883,-144.2057 883,-178 883,-178 883,-178 529.4003,-178 529.4003,-178"/>
<polygon fill="#000000" stroke="#000000" points="529.4003,-174.5001 519.4003,-178 529.4002,-181.5001 529.4003,-174.5001"/>
</g>
<!-- PriceComponent -->
<g id="node2" class="node">
<title>PriceComponent</title>
<polygon fill="#ffffb3" stroke="#000000" points="792.0954,-122 681.9046,-122 681.9046,-86 792.0954,-86 792.0954,-122"/>
<text text-anchor="middle" x="737" y="-99.8" font-family="Times,serif" font-size="14.00" fill="#000000">PriceComponent</text>
</g>
<!-- PriceComponent&#45;&gt;BookDetailModule -->
<g id="edge2" class="edge">
<title>PriceComponent&#45;&gt;BookDetailModule</title>
<path fill="none" stroke="#000000" d="M737,-122.1061C737,-141.3391 737,-169 737,-169 737,-169 529.1411,-169 529.1411,-169"/>
<polygon fill="#000000" stroke="#000000" points="529.1411,-165.5001 519.1411,-169 529.141,-172.5001 529.1411,-165.5001"/>
</g>
<!-- RatingComponent -->
<g id="node3" class="node">
<title>RatingComponent</title>
<polygon fill="#ffffb3" stroke="#000000" points="664.1653,-122 545.8347,-122 545.8347,-86 664.1653,-86 664.1653,-122"/>
<text text-anchor="middle" x="605" y="-99.8" font-family="Times,serif" font-size="14.00" fill="#000000">RatingComponent</text>
</g>
<!-- RatingComponent&#45;&gt;BookDetailModule -->
<g id="edge3" class="edge">
<title>RatingComponent&#45;&gt;BookDetailModule</title>
<path fill="none" stroke="#000000" d="M605,-122.027C605,-138.3976 605,-160 605,-160 605,-160 529.3364,-160 529.3364,-160"/>
<polygon fill="#000000" stroke="#000000" points="529.3364,-156.5001 519.3364,-160 529.3363,-163.5001 529.3364,-156.5001"/>
</g>
<!-- CommentsComponent -->
<g id="node4" class="node">
<title>CommentsComponent</title>
<polygon fill="#ffffb3" stroke="#000000" points="528,-122 386,-122 386,-86 528,-86 528,-122"/>
<text text-anchor="middle" x="457" y="-99.8" font-family="Times,serif" font-size="14.00" fill="#000000">CommentsComponent</text>
</g>
<!-- CommentsComponent&#45;&gt;BookDetailModule -->
<g id="edge4" class="edge">
<title>CommentsComponent&#45;&gt;BookDetailModule</title>
<path fill="none" stroke="#000000" d="M457,-122.1061C457,-122.1061 457,-140.991 457,-140.991"/>
<polygon fill="#000000" stroke="#000000" points="453.5001,-140.9909 457,-150.991 460.5001,-140.991 453.5001,-140.9909"/>
</g>
<!-- DiscountPipe -->
<g id="node5" class="node">
<title>DiscountPipe</title>
<polygon fill="#ffffb3" stroke="#000000" points="367.9358,-122 276.0642,-122 276.0642,-86 367.9358,-86 367.9358,-122"/>
<text text-anchor="middle" x="322" y="-99.8" font-family="Times,serif" font-size="14.00" fill="#000000">DiscountPipe</text>
</g>
<!-- DiscountPipe&#45;&gt;BookDetailModule -->
<g id="edge5" class="edge">
<title>DiscountPipe&#45;&gt;BookDetailModule</title>
<path fill="none" stroke="#000000" d="M322,-122.027C322,-138.3976 322,-160 322,-160 322,-160 384.6372,-160 384.6372,-160"/>
<polygon fill="#000000" stroke="#000000" points="384.6372,-163.5001 394.6372,-160 384.6371,-156.5001 384.6372,-163.5001"/>
</g>
<!-- CommonModule -->
<g id="node7" class="node">
<title>CommonModule</title>
<polygon fill="#8dd3c7" stroke="#000000" points="251.6681,-122 248.6681,-126 227.6681,-126 224.6681,-122 140.3319,-122 140.3319,-86 251.6681,-86 251.6681,-122"/>
<text text-anchor="middle" x="196" y="-99.8" font-family="Times,serif" font-size="14.00" fill="#000000">CommonModule</text>
</g>
<!-- CommonModule&#45;&gt;BookDetailModule -->
<g id="edge6" class="edge">
<title>CommonModule&#45;&gt;BookDetailModule</title>
<path fill="none" stroke="#000000" d="M196,-122.1061C196,-141.3391 196,-169 196,-169 196,-169 384.8156,-169 384.8156,-169"/>
<polygon fill="#000000" stroke="#000000" points="384.8156,-172.5001 394.8156,-169 384.8156,-165.5001 384.8156,-172.5001"/>
</g>
<!-- RouterModule -->
<g id="node8" class="node">
<title>RouterModule</title>
<polygon fill="#8dd3c7" stroke="#000000" points="121.6528,-122 118.6528,-126 97.6528,-126 94.6528,-122 24.3472,-122 24.3472,-86 121.6528,-86 121.6528,-122"/>
<text text-anchor="middle" x="73" y="-99.8" font-family="Times,serif" font-size="14.00" fill="#000000">RouterModule</text>
</g>
<!-- RouterModule&#45;&gt;BookDetailModule -->
<g id="edge7" class="edge">
<title>RouterModule&#45;&gt;BookDetailModule</title>
<path fill="none" stroke="#000000" d="M73,-122.2921C73,-144.2057 73,-178 73,-178 73,-178 384.877,-178 384.877,-178"/>
<polygon fill="#000000" stroke="#000000" points="384.877,-181.5001 394.877,-178 384.8769,-174.5001 384.877,-181.5001"/>
</g>
</g>
</svg>
