<?xml version="1.0" encoding="UTF-8" standalone="no"?>
<!DOCTYPE svg PUBLIC "-//W3C//DTD SVG 1.1//EN"
 "http://www.w3.org/Graphics/SVG/1.1/DTD/svg11.dtd">
<!-- Generated by graphviz version 2.40.1 (20161225.0304)
 -->
<!-- Title: dependencies Pages: 1 -->
<svg width="1221pt" height="284pt"
 viewBox="0.00 0.00 1221.00 284.00" xmlns="http://www.w3.org/2000/svg" xmlns:xlink="http://www.w3.org/1999/xlink">
<g id="graph0" class="graph" transform="scale(1 1) rotate(0) translate(4 280)">
<title>dependencies</title>
<polygon fill="#ffffff" stroke="transparent" points="-4,4 -4,-280 1217,-280 1217,4 -4,4"/>
<text text-anchor="start" x="585.5091" y="-42.4" font-family="sans-serif" font-weight="bold" font-size="14.00" fill="#000000">Legend</text>
<polygon fill="#ffffb3" stroke="transparent" points="372.5,-10 372.5,-30 392.5,-30 392.5,-10 372.5,-10"/>
<text text-anchor="start" x="396.129" y="-15.4" font-family="sans-serif" font-size="14.00" fill="#000000"> &#160;Declarations</text>
<polygon fill="#8dd3c7" stroke="transparent" points="485.5,-10 485.5,-30 505.5,-30 505.5,-10 485.5,-10"/>
<text text-anchor="start" x="509.2251" y="-15.4" font-family="sans-serif" font-size="14.00" fill="#000000"> &#160;Module</text>
<polygon fill="#80b1d3" stroke="transparent" points="571.5,-10 571.5,-30 591.5,-30 591.5,-10 571.5,-10"/>
<text text-anchor="start" x="595.2812" y="-15.4" font-family="sans-serif" font-size="14.00" fill="#000000"> &#160;Bootstrap</text>
<polygon fill="#fdb462" stroke="transparent" points="668.5,-10 668.5,-30 688.5,-30 688.5,-10 668.5,-10"/>
<text text-anchor="start" x="692.1732" y="-15.4" font-family="sans-serif" font-size="14.00" fill="#000000"> &#160;Providers</text>
<polygon fill="#fb8072" stroke="transparent" points="764.5,-10 764.5,-30 784.5,-30 784.5,-10 764.5,-10"/>
<text text-anchor="start" x="788.2258" y="-15.4" font-family="sans-serif" font-size="14.00" fill="#000000"> &#160;Exports</text>
<g id="clust1" class="cluster">
<title>cluster_AppModule</title>
<polygon fill="none" stroke="#000000" stroke-dasharray="1,5" points="8,-70 8,-268 1205,-268 1205,-70 8,-70"/>
</g>
<g id="clust2" class="cluster">
<title>cluster_AppModule_declarations</title>
<polygon fill="none" stroke="#000000" points="935,-78 935,-130 1197,-130 1197,-78 935,-78"/>
</g>
<g id="clust5" class="cluster">
<title>cluster_AppModule_imports</title>
<polygon fill="none" stroke="#000000" points="170,-78 170,-130 927,-130 927,-78 170,-78"/>
</g>
<g id="clust7" class="cluster">
<title>cluster_AppModule_bootstrap</title>
<polygon fill="none" stroke="#000000" points="577,-208 577,-260 701,-260 701,-208 577,-208"/>
</g>
<g id="clust8" class="cluster">
<title>cluster_AppModule_providers</title>
<polygon fill="none" stroke="#000000" points="16,-78 16,-130 162,-130 162,-78 16,-78"/>
</g>
<!-- AppComponent -->
<g id="node1" class="node">
<title>AppComponent</title>
<polygon fill="#ffffb3" stroke="#000000" points="1188.9399,-122 1083.0601,-122 1083.0601,-86 1188.9399,-86 1188.9399,-122"/>
<text text-anchor="middle" x="1136" y="-99.8" font-family="Times,serif" font-size="14.00" fill="#000000">AppComponent</text>
</g>
<!-- AppModule -->
<g id="node3" class="node">
<title>AppModule</title>
<polygon fill="#8dd3c7" stroke="#000000" points="680.6571,-187 677.6571,-191 656.6571,-191 653.6571,-187 597.3429,-187 597.3429,-151 680.6571,-151 680.6571,-187"/>
<text text-anchor="middle" x="639" y="-164.8" font-family="Times,serif" font-size="14.00" fill="#000000">AppModule</text>
</g>
<!-- AppComponent&#45;&gt;AppModule -->
<g id="edge1" class="edge">
<title>AppComponent&#45;&gt;AppModule</title>
<path fill="none" stroke="#000000" d="M1136,-122.0109C1136,-144.4852 1136,-180 1136,-180 1136,-180 690.9456,-180 690.9456,-180"/>
<polygon fill="#000000" stroke="#000000" points="690.9456,-176.5001 680.9456,-180 690.9456,-183.5001 690.9456,-176.5001"/>
</g>
<!-- HeaderComponent -->
<g id="node2" class="node">
<title>HeaderComponent</title>
<polygon fill="#ffffb3" stroke="#000000" points="1064.7437,-122 943.2563,-122 943.2563,-86 1064.7437,-86 1064.7437,-122"/>
<text text-anchor="middle" x="1004" y="-99.8" font-family="Times,serif" font-size="14.00" fill="#000000">HeaderComponent</text>
</g>
<!-- HeaderComponent&#45;&gt;AppModule -->
<g id="edge2" class="edge">
<title>HeaderComponent&#45;&gt;AppModule</title>
<path fill="none" stroke="#000000" d="M1004,-122.1289C1004,-142.5724 1004,-173 1004,-173 1004,-173 690.8701,-173 690.8701,-173"/>
<polygon fill="#000000" stroke="#000000" points="690.8702,-169.5001 680.8701,-173 690.8701,-176.5001 690.8702,-169.5001"/>
</g>
<!-- AppComponent  -->
<g id="node10" class="node">
<title>AppComponent </title>
<polygon fill="#80b1d3" stroke="#000000" points="693.439,-252 584.561,-252 584.561,-216 693.439,-216 693.439,-252"/>
<text text-anchor="middle" x="639" y="-229.8" font-family="Times,serif" font-size="14.00" fill="#000000">AppComponent </text>
</g>
<!-- AppModule&#45;&gt;AppComponent  -->
<g id="edge9" class="edge">
<title>AppModule&#45;&gt;AppComponent </title>
<path fill="none" stroke="#000000" stroke-dasharray="1,5" d="M639,-187.1061C639,-187.1061 639,-205.991 639,-205.991"/>
<polygon fill="#000000" stroke="#000000" points="635.5001,-205.9909 639,-215.991 642.5001,-205.991 635.5001,-205.9909"/>
</g>
<!-- BrowserModule -->
<g id="node4" class="node">
<title>BrowserModule</title>
<polygon fill="#8dd3c7" stroke="#000000" points="919.4734,-122 916.4734,-126 895.4734,-126 892.4734,-122 812.5266,-122 812.5266,-86 919.4734,-86 919.4734,-122"/>
<text text-anchor="middle" x="866" y="-99.8" font-family="Times,serif" font-size="14.00" fill="#000000">BrowserModule</text>
</g>
<!-- BrowserModule&#45;&gt;AppModule -->
<g id="edge3" class="edge">
<title>BrowserModule&#45;&gt;AppModule</title>
<path fill="none" stroke="#000000" d="M866,-122.2667C866,-140.5552 866,-166 866,-166 866,-166 690.8998,-166 690.8998,-166"/>
<polygon fill="#000000" stroke="#000000" points="690.8999,-162.5001 680.8998,-166 690.8998,-169.5001 690.8999,-162.5001"/>
</g>
<!-- FormsModule -->
<g id="node5" class="node">
<title>FormsModule</title>
<polygon fill="#8dd3c7" stroke="#000000" points="794.8288,-122 791.8288,-126 770.8288,-126 767.8288,-122 699.1712,-122 699.1712,-86 794.8288,-86 794.8288,-122"/>
<text text-anchor="middle" x="747" y="-99.8" font-family="Times,serif" font-size="14.00" fill="#000000">FormsModule</text>
</g>
<!-- FormsModule&#45;&gt;AppModule -->
<g id="edge4" class="edge">
<title>FormsModule&#45;&gt;AppModule</title>
<path fill="none" stroke="#000000" d="M747,-122.0091C747,-138.0494 747,-159 747,-159 747,-159 690.7556,-159 690.7556,-159"/>
<polygon fill="#000000" stroke="#000000" points="690.7557,-155.5001 680.7556,-159 690.7556,-162.5001 690.7557,-155.5001"/>
</g>
<!-- HttpModule -->
<g id="node6" class="node">
<title>HttpModule</title>
<polygon fill="#8dd3c7" stroke="#000000" points="681.4387,-122 678.4387,-126 657.4387,-126 654.4387,-122 596.5613,-122 596.5613,-86 681.4387,-86 681.4387,-122"/>
<text text-anchor="middle" x="639" y="-99.8" font-family="Times,serif" font-size="14.00" fill="#000000">HttpModule</text>
</g>
<!-- HttpModule&#45;&gt;AppModule -->
<g id="edge5" class="edge">
<title>HttpModule&#45;&gt;AppModule</title>
<path fill="none" stroke="#000000" d="M639,-122.1061C639,-122.1061 639,-140.991 639,-140.991"/>
<polygon fill="#000000" stroke="#000000" points="635.5001,-140.9909 639,-150.991 642.5001,-140.991 635.5001,-140.9909"/>
</g>
<!-- AppRoutingModule -->
<g id="node7" class="node">
<title>AppRoutingModule</title>
<polygon fill="#8dd3c7" stroke="#000000" points="578.2744,-122 575.2744,-126 554.2744,-126 551.2744,-122 449.7256,-122 449.7256,-86 578.2744,-86 578.2744,-122"/>
<text text-anchor="middle" x="514" y="-99.8" font-family="Times,serif" font-size="14.00" fill="#000000">AppRoutingModule</text>
</g>
<!-- AppRoutingModule&#45;&gt;AppModule -->
<g id="edge6" class="edge">
<title>AppRoutingModule&#45;&gt;AppModule</title>
<path fill="none" stroke="#000000" d="M514,-122.0091C514,-138.0494 514,-159 514,-159 514,-159 587.0291,-159 587.0291,-159"/>
<polygon fill="#000000" stroke="#000000" points="587.0291,-162.5001 597.0291,-159 587.029,-155.5001 587.0291,-162.5001"/>
</g>
<!-- BookDetailModule -->
<g id="node8" class="node">
<title>BookDetailModule</title>
<polygon fill="#8dd3c7" stroke="#000000" points="432.094,-122 429.094,-126 408.094,-126 405.094,-122 307.906,-122 307.906,-86 432.094,-86 432.094,-122"/>
<text text-anchor="middle" x="370" y="-99.8" font-family="Times,serif" font-size="14.00" fill="#000000">BookDetailModule</text>
</g>
<!-- BookDetailModule&#45;&gt;AppModule -->
<g id="edge7" class="edge">
<title>BookDetailModule&#45;&gt;AppModule</title>
<path fill="none" stroke="#000000" d="M370,-122.2667C370,-140.5552 370,-166 370,-166 370,-166 587.2639,-166 587.2639,-166"/>
<polygon fill="#000000" stroke="#000000" points="587.2639,-169.5001 597.2639,-166 587.2639,-162.5001 587.2639,-169.5001"/>
</g>
<!-- BookListModule -->
<g id="node9" class="node">
<title>BookListModule</title>
<polygon fill="#8dd3c7" stroke="#000000" points="289.6653,-122 286.6653,-126 265.6653,-126 262.6653,-122 178.3347,-122 178.3347,-86 289.6653,-86 289.6653,-122"/>
<text text-anchor="middle" x="234" y="-99.8" font-family="Times,serif" font-size="14.00" fill="#000000">BookListModule</text>
</g>
<!-- BookListModule&#45;&gt;AppModule -->
<g id="edge8" class="edge">
<title>BookListModule&#45;&gt;AppModule</title>
<path fill="none" stroke="#000000" d="M234,-122.1289C234,-142.5724 234,-173 234,-173 234,-173 587.1833,-173 587.1833,-173"/>
<polygon fill="#000000" stroke="#000000" points="587.1833,-176.5001 597.1833,-173 587.1833,-169.5001 587.1833,-176.5001"/>
</g>
<!-- BooksService -->
<g id="node11" class="node">
<title>BooksService</title>
<ellipse fill="#fdb462" stroke="#000000" cx="89" cy="-104" rx="64.8467" ry="18"/>
<text text-anchor="middle" x="89" y="-99.8" font-family="Times,serif" font-size="14.00" fill="#000000">BooksService</text>
</g>
<!-- BooksService&#45;&gt;AppModule -->
<g id="edge10" class="edge">
<title>BooksService&#45;&gt;AppModule</title>
<path fill="none" stroke="#000000" d="M89,-122.0109C89,-144.4852 89,-180 89,-180 89,-180 587.2092,-180 587.2092,-180"/>
<polygon fill="#000000" stroke="#000000" points="587.2092,-183.5001 597.2092,-180 587.2091,-176.5001 587.2092,-183.5001"/>
</g>
</g>
</svg>
